<svg width="97" height="24" viewBox="0 0 97 24" fill="none" xmlns="http://www.w3.org/2000/svg">
<path fill-rule="evenodd" clip-rule="evenodd" d="M16.585 2.61998C23.4315 2.61998 27.3615 5.63543 27.3615 10.3563C27.3615 10.3959 27.359 10.4379 27.359 10.4799L30.5499 2.61998H36.9516L31.0739 11.5675H31.2124L38.8548 2.61998H47.0113L22.0227 24H21.8744L25.6189 14.7732C22.9248 17.9197 17.3808 19.9464 10.9495 19.9464H0L14.5829 2.61998H16.585ZM11.0237 11.5675H23.9011V11.4686L13.1246 8.97219L11.0237 11.5675Z" fill="black"/>
<path d="M66.414 0.148301V19.9217H61.2729V10.7938L45.4542 24H45.3553V11.5675H50.4964V13.6906L66.3151 0.148301H66.414Z" fill="black"/>
<path d="M44.3666 19.9217H39.2255V11.5675H44.3666V19.9217Z" fill="black"/>
<path fill-rule="evenodd" clip-rule="evenodd" d="M96.2225 19.9217H85.6684L82.1759 18.0729L79.9588 19.9217H73.0134L77.8282 15.7693L72.5438 12.9714V19.9217H67.4027V2.61998H72.5438V7.8896L78.0803 2.61998H85.4954L76.8568 10.0424L81.6198 12.5042L96.1236 0H96.2225V19.9217ZM86.0836 14.8103L91.0814 17.3907V10.6406L86.0836 14.8103Z" fill="black"/>
<path d="M45.5036 11.1226H45.3553L53.5662 3.05252L39.3738 11.1226H39.2255L47.9753 2.61998H60.3584L45.5036 11.1226Z" fill="black"/>
</svg>
