<svg preserveAspectRatio="none" width="100%" height="100%" overflow="visible" style="display: block;" viewBox="0 0 181.38 46" fill="none" xmlns="http://www.w3.org/2000/svg">
<g id="Logo">
<path id="Union" d="M158.428 0C164.557 0 170.325 2.3871 174.659 6.72168C178.994 11.0562 181.38 16.8228 181.38 22.9521C181.38 29.0814 178.993 34.8481 174.659 39.1826C170.325 43.5172 164.557 45.9043 158.428 45.9043C152.298 45.9043 146.532 43.5172 142.197 39.1826C138.783 35.7685 136.675 31.5375 135.865 27.1152C133.937 37.8389 124.518 46 113.271 46C102.025 45.9998 92.6457 37.8729 90.6904 27.1836C88.7389 37.8729 79.3554 45.9999 68.1123 46C56.8691 46 47.4895 37.873 45.5342 27.1836C43.5827 37.873 34.1992 46 22.9561 46C10.2961 46 1.44099e-05 35.7001 0 23.0439C0 10.3877 10.296 0.0918115 22.9561 0.0917969C34.1992 0.0917969 43.5789 8.21879 45.5381 18.9082C47.4896 8.21879 56.873 0.0917969 68.1162 0.0917969C79.3592 0.0919472 88.739 8.21889 90.6943 18.9082C92.6497 8.21889 102.04 0.0919512 113.275 0.0917969C124.511 0.0917969 133.89 8.21082 135.85 18.8887C136.648 14.4281 138.76 10.1588 142.197 6.72168C146.532 2.38714 152.298 4.15202e-05 158.428 0ZM22.9561 0.839844C10.7085 0.839858 0.748047 10.8002 0.748047 23.0439C0.748061 35.2877 10.7085 45.2519 22.9561 45.252C35.1998 45.252 45.1601 35.2877 45.1602 23.0439C45.1602 10.8002 35.2036 0.839844 22.9561 0.839844ZM68.1162 0.839844C55.8686 0.839844 45.9121 10.7964 45.9121 23.0439C45.9121 35.2915 55.8725 45.252 68.1162 45.252C80.3598 45.2518 90.3193 35.2876 90.3193 23.0439C90.3193 10.8003 80.3636 0.840013 68.1162 0.839844ZM113.275 0.839844C101.028 0.840017 91.0723 10.7965 91.0723 23.0439C91.0723 35.2914 101.032 45.2518 113.275 45.252C125.519 45.252 135.479 35.2877 135.479 23.0439C135.479 10.8002 125.523 0.839844 113.275 0.839844ZM142.999 38.916C147.158 42.9412 152.623 45.1601 158.428 45.1602C164.233 45.1602 169.694 42.9449 173.856 38.916L158.428 23.4873L142.999 38.916ZM142.472 7.52734C138.317 11.8199 136.235 17.388 136.235 22.9561C136.235 28.5241 138.321 34.0922 142.472 38.3848L157.9 22.9561L142.472 7.52734ZM158.959 22.9561L174.388 38.3848C178.413 34.2221 180.632 28.7609 180.632 22.9561C180.632 17.1512 178.413 11.69 174.388 7.52734L158.959 22.9561ZM24.6641 15.1504C26.306 15.1505 27.5397 15.5127 28.376 16.2344V16.2305C29.2122 16.9522 29.6279 18.0217 29.6279 19.4346V20.1113C29.6278 21.5088 29.2122 22.5744 28.376 23.3037C27.5397 24.0331 26.3022 24.3954 24.6641 24.3955H21.5508V30.9375H17.9648V15.1504H24.6641ZM74.9062 30.9375H71.0723L70.4453 28.2764H65.7861L65.1602 30.9375H61.3262L65.8135 15.1504H70.4414L74.9062 30.9375ZM115.066 15.1504V30.9375H111.48V15.1504H115.066ZM66.3779 25.752H69.8457L68.1123 18.377L66.3779 25.752ZM158.428 0.748047C152.623 0.748088 147.162 2.96328 142.999 6.99219L158.428 22.4219L173.856 6.99219C169.694 2.96716 164.232 0.748047 158.428 0.748047ZM21.5508 21.8027H23.9873C24.648 21.8027 25.1525 21.6533 25.5 21.3516C25.8473 21.0538 26.0195 20.6112 26.0195 20.0234V19.5225C26.0195 18.9383 25.8437 18.495 25.5 18.1934C25.1525 17.8917 24.6479 17.7432 23.9873 17.7432H21.5508V21.8027Z" fill="var(--fill-0, black)"/>
</g>
</svg>
