<svg width="158" height="40" viewBox="0 0 158 40" fill="none" xmlns="http://www.w3.org/2000/svg">
<path fill-rule="evenodd" clip-rule="evenodd" d="M21.4463 13.1738C22.8743 13.1738 23.9475 13.4895 24.6748 14.1172V14.1133C25.4021 14.7409 25.7637 15.6717 25.7637 16.9004V17.4873C25.7637 18.7026 25.4019 19.6294 24.6748 20.2637C23.9475 20.898 22.8709 21.2139 21.4463 21.2139H18.7402V26.9023H15.6221V13.1738H21.4463ZM18.7402 18.959H20.8584C21.4328 18.959 21.8716 18.8296 22.1738 18.5674C22.476 18.3084 22.626 17.9225 22.626 17.4111V16.9766C22.626 16.4685 22.4727 16.0827 22.1738 15.8203C21.8716 15.5581 21.4328 15.4287 20.8584 15.4287H18.7402V18.959Z" fill="white"/>
<path fill-rule="evenodd" clip-rule="evenodd" d="M65.1357 26.9023H61.8018L61.2568 24.5879H57.2061L56.6611 26.9023H53.3271L57.2285 13.1738H61.2539L65.1357 26.9023ZM57.7207 22.3926H60.7354L59.2285 15.9805L57.7207 22.3926Z" fill="white"/>
<path d="M100.059 13.1738V26.9023H96.9404V13.1738H100.059Z" fill="white"/>
<path fill-rule="evenodd" clip-rule="evenodd" d="M137.764 0C143.094 1.74661e-05 148.108 2.07568 151.877 5.84473C155.646 9.61381 157.722 14.6282 157.722 19.958C157.722 25.288 155.646 30.3031 151.877 34.0723C148.108 37.8413 143.094 39.917 137.764 39.917C132.434 39.917 127.419 37.8415 123.649 34.0723C120.681 31.1034 118.848 27.4236 118.144 23.5781C116.467 32.9032 108.277 40 98.4971 40C88.7172 39.9998 80.5616 32.9327 78.8613 23.6377C77.1644 32.9328 69.0042 40 59.2275 40C49.4511 39.9998 41.295 32.9327 39.5947 23.6377C37.8978 32.9328 29.7386 40 19.9619 40C8.95318 40 0 31.0435 0 20.0381C5.71922e-05 9.03274 8.95321 0.0800781 19.9619 0.0800781C29.7385 0.080113 37.8949 7.14638 39.5986 16.4414C41.2957 7.14643 49.4549 0.0800781 59.2314 0.0800781C69.008 0.0801431 77.1639 7.14645 78.8643 16.4414C80.5646 7.14638 88.731 0.0800781 98.501 0.0800781C108.271 0.0801757 116.427 7.13979 118.131 16.4248C118.825 12.5462 120.661 8.8334 123.649 5.84473C127.419 2.07553 132.434 0 137.764 0ZM19.9619 0.730469C9.31187 0.730469 0.651424 9.39139 0.651367 20.0381C0.651367 30.6848 9.31184 39.3486 19.9619 39.3486C30.6086 39.3486 39.2695 30.6848 39.2695 20.0381C39.2695 9.39142 30.6119 0.730508 19.9619 0.730469ZM59.2314 0.730469C48.5814 0.730469 39.9239 9.38807 39.9238 20.0381C39.9238 30.6881 48.5847 39.3486 59.2314 39.3486C69.8781 39.3486 78.5391 30.6848 78.5391 20.0381C78.539 9.39144 69.8814 0.730542 59.2314 0.730469ZM98.501 0.730469C87.8509 0.730469 79.1934 9.38807 79.1934 20.0381C79.1934 30.6881 87.8542 39.3486 98.501 39.3486C109.148 39.3485 117.809 30.6848 117.809 20.0381C117.809 9.39146 109.151 0.730579 98.501 0.730469ZM124.348 33.8398C127.964 37.3399 132.716 39.2695 137.764 39.2695C142.811 39.2695 147.56 37.3432 151.18 33.8398L137.764 20.4238L124.348 33.8398ZM123.889 6.5459C120.276 10.2785 118.466 15.1202 118.466 19.9619C118.466 24.8036 120.279 29.6453 123.889 33.3779L137.306 19.9619L123.889 6.5459ZM138.226 19.9619L151.642 33.3779C155.142 29.7582 157.071 25.0096 157.071 19.9619C157.071 14.9143 155.142 10.1656 151.642 6.5459L138.226 19.9619ZM137.764 0.651367C132.716 0.651367 127.967 2.57682 124.348 6.08008L137.764 19.4971L151.18 6.08008C147.56 2.58012 142.811 0.651384 137.764 0.651367Z" fill="white"/>
</svg>
