<svg preserveAspectRatio="none" width="100%" height="100%" overflow="visible" style="display: block;" viewBox="0 0 145 72" fill="none" xmlns="http://www.w3.org/2000/svg">
<path id="Vector" d="M134.298 10.5356C120.045 -3.49788 96.8592 -3.49788 82.6122 10.5356C77.2916 15.7764 73.8195 22.3409 72.5 29.4804C71.1805 22.3469 67.7084 15.7824 62.3939 10.5475C55.4862 3.74345 46.3105 0 36.551 0C16.3996 0 0 16.1537 0 36.003C0 45.6222 3.80043 54.6603 10.7081 61.4584C17.6097 68.2565 26.7915 72 36.551 72C46.3166 72 55.4923 68.2565 62.3939 61.4584C67.7145 56.2176 71.1866 49.6531 72.5061 42.5136C73.8256 49.6471 77.2977 56.2116 82.6122 61.4465C89.5138 68.2446 98.6956 71.988 108.455 71.988C118.215 71.988 127.396 68.2446 134.298 61.4465C141.2 54.6484 145 45.6042 145 35.991C145 26.3778 141.2 17.3337 134.298 10.5356ZM143.808 35.991C143.808 45.0951 140.281 53.6661 133.872 60.1947L109.3 35.991L133.872 11.7874C140.287 18.3159 143.814 26.8869 143.814 35.991H143.808ZM133.027 10.9548L108.455 35.1585L83.883 10.9548C90.7177 4.44422 99.5834 1.17994 108.455 1.17994C117.327 1.17994 126.192 4.43823 133.027 10.9548ZM71.898 35.41H37.1469V1.17994C46.3652 1.32967 55.0119 4.93536 61.5487 11.3741C68.0854 17.8128 71.746 26.3299 71.898 35.41ZM11.5594 11.3861C17.8286 5.21088 26.4388 1.33566 35.949 1.17994V35.41H1.19789C1.35599 26.0424 5.28411 17.5613 11.5594 11.3861ZM1.19789 36.59H35.949V70.8201C26.7307 70.6703 18.084 67.0646 11.5472 60.6259C5.01048 54.1872 1.34991 45.6701 1.19789 36.59ZM61.5487 60.6259C55.0119 67.0646 46.3652 70.6703 37.1469 70.8201V36.59H71.898C71.746 45.6701 68.0854 54.1872 61.5487 60.6259ZM83.0378 11.7874L107.61 35.991L83.0378 60.1947C76.6227 53.6661 73.0959 45.0951 73.0959 35.991C73.0959 26.8869 76.6227 18.3159 83.0378 11.7874ZM83.883 61.0272L108.455 36.8236L133.027 61.0272C126.399 67.3461 117.698 70.8201 108.455 70.8201C99.2124 70.8201 90.511 67.3461 83.883 61.0272Z" fill="var(--fill-0, black)"/>
</svg>
